<svg xmlns="http://www.w3.org/2000/svg" viewBox="0 0 680 800" width="680" height="800" font-family="Segoe UI, Arial, sans-serif">
  <rect width="680" height="800" fill="#F8F9FA"/>
  <rect x="10" y="10" width="140" height="110" rx="6" fill="#FFFFFF" stroke="#E0E0E0"/>
  <text x="80" y="30" text-anchor="middle" font-size="12" font-weight="bold" fill="#333">Legend</text>
  <circle cx="30" cy="48" r="10" fill="#EF9F27" stroke="#C78B1F" stroke-width="2"/>
  <text x="48" y="52" font-size="10" fill="#444">Checkpoint</text>
  <rect x="20" y="64" width="20" height="14" rx="3" fill="#5BC4A8" stroke="#3A9B7E"/>
  <text x="48" y="76" font-size="10" fill="#444">Main Phase</text>
  <rect x="20" y="84" width="20" height="14" rx="3" fill="#D4EDDA" stroke="#6B9B72"/>
  <text x="48" y="96" font-size="10" fill="#444">Subtask</text>
  <rect x="20" y="104" width="20" height="14" rx="3" fill="#FAC775" stroke="#C9A040"/>
  <text x="48" y="116" font-size="10" fill="#444">Branch/Choice</text>
  <rect x="190" y="10" width="320" height="56" rx="8" fill="#5BC4A8" stroke="#3A9B7E" stroke-width="2"/>
  <text x="350" y="32" text-anchor="middle" font-size="14" font-weight="bold" fill="#FFF">Phase 1</text>
  <text x="350" y="54" text-anchor="middle" font-size="11" fill="#FFF">Information Collection</text>
  <circle cx="570" cy="38" r="22" fill="#EF9F27" stroke="#C78B1F" stroke-width="3"/>
  <text x="570" y="39" text-anchor="middle" font-size="10" font-weight="bold" fill="#FFF" dominant-baseline="central">CP-0</text>
  <rect x="190" y="90" width="320" height="56" rx="8" fill="#5BC4A8" stroke="#3A9B7E" stroke-width="2"/>
  <text x="350" y="112" text-anchor="middle" font-size="14" font-weight="bold" fill="#FFF">Phase 2</text>
  <text x="350" y="134" text-anchor="middle" font-size="11" fill="#FFF">Guideline Interpretation</text>
  <circle cx="570" cy="118" r="22" fill="#EF9F27" stroke="#C78B1F" stroke-width="3"/>
  <text x="570" y="119" text-anchor="middle" font-size="10" font-weight="bold" fill="#FFF" dominant-baseline="central">CP-1</text>
  <rect x="190" y="170" width="320" height="56" rx="8" fill="#5BC4A8" stroke="#3A9B7E" stroke-width="2"/>
  <text x="350" y="192" text-anchor="middle" font-size="14" font-weight="bold" fill="#FFF">Phase 3</text>
  <text x="350" y="214" text-anchor="middle" font-size="11" fill="#FFF">File Preprocessing</text>
  <rect x="220" y="245" width="140" height="38" rx="6" fill="#D4EDDA" stroke="#6B9B72"/>
  <text x="290" y="269" text-anchor="middle" font-size="10" fill="#333">Anonymization</text>
  <rect x="220" y="293" width="140" height="38" rx="6" fill="#D4EDDA" stroke="#6B9B72"/>
  <text x="290" y="317" text-anchor="middle" font-size="10" fill="#333">Reference Format</text>
  <rect x="400" y="269" width="170" height="38" rx="6" fill="#FAC775" stroke="#C9A040"/>
  <text x="485" y="288" text-anchor="middle" font-size="10" fill="#333">Reference Conversion</text>
  <text x="485" y="302" text-anchor="middle" font-size="8" fill="#666">User choice: Manual or AI</text>
  <circle cx="620" cy="288" r="22" fill="#EF9F27" stroke="#C78B1F" stroke-width="3"/>
  <text x="620" y="289" text-anchor="middle" font-size="10" font-weight="bold" fill="#FFF" dominant-baseline="central">CP-2</text>
  <rect x="190" y="355" width="320" height="56" rx="8" fill="#5BC4A8" stroke="#3A9B7E" stroke-width="2"/>
  <text x="350" y="377" text-anchor="middle" font-size="14" font-weight="bold" fill="#FFF">Phase 4</text>
  <text x="350" y="399" text-anchor="middle" font-size="11" fill="#FFF">Account Login / Registration</text>
  <rect x="190" y="430" width="100" height="38" rx="6" fill="#FAC775" stroke="#C9A040"/>
  <text x="240" y="449" text-anchor="middle" font-size="10" fill="#333">A. Existing</text>
  <text x="240" y="461" text-anchor="middle" font-size="8" fill="#666">Account</text>
  <rect x="300" y="430" width="110" height="38" rx="6" fill="#FAC775" stroke="#C9A040"/>
  <text x="355" y="449" text-anchor="middle" font-size="10" fill="#333">B. No Account</text>
  <text x="355" y="461" text-anchor="middle" font-size="8" fill="#666">+ ORCID</text>
  <rect x="420" y="430" width="110" height="38" rx="6" fill="#FAC775" stroke="#C9A040"/>
  <text x="475" y="449" text-anchor="middle" font-size="10" fill="#333">C. No Account</text>
  <text x="475" y="461" text-anchor="middle" font-size="8" fill="#666">+ No ORCID</text>
  <circle cx="350" cy="498" r="22" fill="#EF9F27" stroke="#C78B1F" stroke-width="3"/>
  <text x="350" y="499" text-anchor="middle" font-size="10" font-weight="bold" fill="#FFF" dominant-baseline="central">CP-3</text>
  <rect x="190" y="525" width="320" height="56" rx="8" fill="#5BC4A8" stroke="#3A9B7E" stroke-width="2"/>
  <text x="350" y="547" text-anchor="middle" font-size="14" font-weight="bold" fill="#FFF">Phase 5</text>
  <text x="350" y="569" text-anchor="middle" font-size="11" fill="#FFF">Submission Form Filling</text>
  <rect x="230" y="600" width="130" height="38" rx="6" fill="#D4EDDA" stroke="#6B9B72"/>
  <text x="295" y="624" text-anchor="middle" font-size="10" fill="#333">Author Info</text>
  <rect x="370" y="600" width="130" height="38" rx="6" fill="#D4EDDA" stroke="#6B9B72"/>
  <text x="435" y="618" text-anchor="middle" font-size="10" fill="#333">Build PDF</text>
  <text x="435" y="630" text-anchor="middle" font-size="8" fill="#666">+ AI Auto-Check</text>
  <circle cx="350" cy="668" r="22" fill="#EF9F27" stroke="#C78B1F" stroke-width="3"/>
  <text x="350" y="669" text-anchor="middle" font-size="10" font-weight="bold" fill="#FFF" dominant-baseline="central">CP-5</text>
  <rect x="250" y="710" width="200" height="48" rx="8" fill="#F5C4B3" stroke="#C47A52" stroke-width="2"/>
  <text x="350" y="734" text-anchor="middle" font-size="14" font-weight="bold" fill="#1A1A1A">User Confirms -&gt; Submit</text>
  <text x="350" y="752" text-anchor="middle" font-size="11" fill="#666">Final submission</text>
</svg>